<svg height="458pt" viewBox="-16 0 458 458.00262" width="458pt" xmlns="http://www.w3.org/2000/svg">
    <path d="m418.4375 149h-28.429688v-101.214844c0-26.464844-21.90625-47.785156-48.375-47.785156h-255.792968c-12.683594-.0273438-24.859375 4.996094-33.835938 13.964844-8.972656 8.964844-14.011718 21.136718-13.996094 33.820312v101.214844h-30.425781c-2.070312 0-4.050781.84375-5.480469 2.339844-1.429687 1.496094-2.1874995 3.511718-2.0937495 5.578125v209.800781c0 4.417969 3.1562495 8.285156 7.5742185 8.285156h6.425781v75.210938c.042969 2.113281.925782 4.125 2.453126 5.585937 1.527343 1.460938 3.578124 2.253907 5.691406 2.199219h67.019531c2.082031.042969 4.089844-.761719 5.570313-2.230469 1.476562-1.46875 2.292968-3.472656 2.265624-5.554687v-75.214844h230v75.214844c0 4.417968 3.964844 7.785156 8.382813 7.785156h67.019531c2.058594.03125 4.039063-.785156 5.476563-2.257812 1.4375-1.472657 2.203125-3.472657 2.121093-5.527344v-75.214844h8.429688c4.417969 0 7.570312-3.863281 7.570312-8.285156v-209.796875c.09375-2.070313-.664062-4.082031-2.09375-5.578125-1.429687-1.496094-3.410156-2.339844-5.476562-2.339844zm-364.429688-101.214844c-.019531-8.441406 3.328126-16.546875 9.304688-22.511718 5.976562-5.96875 14.085938-9.304688 22.527344-9.273438h255.792968c17.644532 0 32.375 14.140625 32.375 31.785156v101.214844h-38.617187c-4.417969 0-8.382813 3.5-8.382813 7.917969v127.082031h-228v-127.082031c0-4.417969-3.960937-7.917969-8.378906-7.917969h-36.621094zm27 394.214844h-51v-67h51zm313 0h-51v-67h51zm16-83h-394v-194h67v127.414062c-.070312 2.039063.710938 4.011719 2.15625 5.453126 1.445313 1.4375 3.425782 2.210937 5.464844 2.132812h244.761719c2.039063.078125 4.019531-.695312 5.464844-2.132812 1.441406-1.441407 2.222656-3.414063 2.152343-5.453126v-127.414062h67zm0 0"/>
</svg>